<?xml version="1.0" encoding="utf-8"?>
<!-- Generator: Adobe Illustrator 16.0.0, SVG Export Plug-In . SVG Version: 6.00 Build 0)  -->
<!DOCTYPE svg PUBLIC "-//W3C//DTD SVG 1.1//EN" "http://www.w3.org/Graphics/SVG/1.1/DTD/svg11.dtd" [
	<!ENTITY st0 "fill:none;stroke:#000000;stroke-width:3;stroke-miterlimit:10;">
	<!ENTITY st1 "fill:none;">
	<!ENTITY st2 "fill:none;stroke:#1C75BC;stroke-width:1.117;stroke-miterlimit:10;">
	<!ENTITY st3 "fill:none;stroke:#000000;stroke-width:0.8081;stroke-miterlimit:10;">
	<!ENTITY st4 "fill:none;stroke:#000000;stroke-width:0.8;stroke-miterlimit:10;">
]>
<svg version="1.1" xmlns="http://www.w3.org/2000/svg" xmlns:xlink="http://www.w3.org/1999/xlink" x="0px" y="0px" width="396px"
	 height="306px" viewBox="0 0 396 306" style="enable-background:new 0 0 396 306;" xml:space="preserve">
<g id="Root">
</g>
<g id="Page_Padding">
	<rect x="1.001" y="1.001" style="&st2;" width="393.998" height="303.854"/>
</g>
<g id="QRCode">
	<g>
		<rect x="-36" y="-36" style="&st0;" width="72" height="72"/>
	</g>
</g>
<g id="Dim_Y">
	<rect x="103.309" y="-0.001" style="&st1;" width="11.301" height="11.731"/>
	<polygon points="-0.174,-107.751 5.477,-102.101 4.916,-101.54 0.223,-106.232 0.223,-96.02 -0.57,-96.02 -0.57,-106.232 
		-5.263,-101.54 -5.824,-102.101 	"/>
	<rect x="103.309" y="58.922" style="&st1;" width="11.301" height="11.731"/>
	<polygon points="-0.174,-37.097 -5.824,-42.748 -5.264,-43.309 -0.57,-38.616 -0.57,-48.828 0.223,-48.828 0.223,-38.616 
		4.915,-43.309 5.477,-42.748 	"/>
	<line style="&st4;" x1="-0.174" y1="-48.828" x2="-0.174" y2="-96.02"/>
	<text transform="matrix(0 -1 1 0 -4.8613 -67.2876)" style="font-family:'MyriadPro-Regular'; font-size:18;">Y</text>
</g>
<g id="Dim_X">
	<rect x="58.921" y="103.7" style="&st1;" width="11.73" height="11.3"/>
	<rect y="103.7" style="&st1;" width="11.73" height="11.3"/>
	<polygon points="-37.348,-0.001 -42.998,5.649 -43.559,5.088 -38.867,0.396 -49.079,0.396 -49.079,-0.397 -38.867,-0.397 
		-43.559,-5.09 -42.998,-5.651 	"/>
	<polygon points="-108,-0.001 -102.35,-5.651 -101.789,-5.09 -106.481,-0.397 -96.27,-0.397 -96.27,0.396 -106.481,0.396 
		-101.789,5.088 -102.35,5.649 	"/>
	<line style="&st4;" x1="-96.27" y1="-0.001" x2="-49.079" y2="-0.001"/>
	<text transform="matrix(1 0 0 1 -77.7725 -4.6509)" style="font-family:'MyriadPro-Regular'; font-size:18;">X</text>
</g>
<g id="Size">
	<line style="&st3;" x1="-24.235" y1="0" x2="23.921" y2="0"/>
	<rect x="22.921" y="56.7" style="&st1;" width="11.73" height="11.3"/>
	<polygon points="35.652,0 30.002,5.65 29.441,5.089 34.133,0.396 23.921,0.396 23.921,-0.396 34.133,-0.396 29.441,-5.089 
		30.002,-5.65 	"/>
	<rect x="-36" y="-2.3" style="&st1;" width="11.73" height="11.3"/>
	<polygon points="-36,-0.001 -30.35,-5.651 -29.789,-5.09 -34.481,-0.397 -24.27,-0.397 -24.27,0.396 -34.481,0.396 -29.789,5.088 
		-30.35,5.649 	"/>
	<text transform="matrix(1 0 0 1 -13.7729 -4.6499)" style="font-family:'MyriadPro-Regular'; font-size:18;">size</text>
	<line style="&st1;" x1="-9.001" y1="0" x2="8.999" y2="0"/>
</g>
</svg>
